<svg width="40" height="45" viewBox="0 0 40 45" fill="none" xmlns="http://www.w3.org/2000/svg">
<g id="6324a7f0dd3788f22e0121fe_trust%20data-c.svg" clip-path="url(#clip0_3_168)">
<g id="Clip path group">
<mask id="mask0_3_168" style="mask-type:luminance" maskUnits="userSpaceOnUse" x="0" y="0" width="40" height="44">
<g id="clip0_20_9">
<path id="Vector" d="M40 0.919983H0V43.9611H40V0.919983Z" fill="white"/>
</g>
</mask>
<g mask="url(#mask0_3_168)">
<g id="Group">
<path id="Vector_2" d="M1.16717 27.1164C0.145065 25.8727 -0.043426 24.4377 0.00834278 22.9192C0.0508197 21.6847 0.0508197 20.4449 0.00834278 19.2104C-0.043426 17.6733 0.1225 16.2092 1.16982 14.9548C0.143738 13.7057 -0.0381164 12.2708 0.00834278 10.7535C0.0521471 9.27479 0.0149798 7.79473 0.018962 6.31467C0.0269264 3.0705 2.15476 0.930725 5.41619 0.926743C12.7235 0.916124 20.0309 0.918779 27.3396 0.929398C28.152 0.929398 28.9869 0.917451 29.7727 1.08736C32.0452 1.58115 33.6434 3.58155 33.6753 5.89787C33.7018 7.86243 33.6899 9.82831 33.6793 11.7942C33.674 12.9106 33.4549 13.4999 32.5709 14.9694C34.408 17.3215 33.4098 20.0865 33.7098 22.5701H29.9559C29.9559 21.4524 29.9559 20.2047 29.9559 18.9569C29.9559 18.6702 29.9718 18.3808 29.9413 18.0967C29.863 17.372 29.3586 16.8954 28.6338 16.8423C28.436 16.8277 28.2369 16.833 28.0378 16.833C20.5751 16.833 13.1138 16.833 5.65114 16.833C4.13657 16.833 3.74366 17.2326 3.74366 18.7671C3.74366 20.3347 3.74233 21.9024 3.74366 23.4701C3.74499 24.7709 4.19763 25.2355 5.48919 25.2355C11.2077 25.2382 16.9248 25.2368 22.6432 25.2368H23.5047C23.2233 25.4718 23.08 25.5939 22.9339 25.7121C22.0884 26.397 21.4366 27.2386 21.1738 28.2939C21.0212 28.9084 20.7265 29.004 20.165 29.0014C15.3306 28.9801 10.4948 28.9881 5.66043 28.9894C4.15515 28.9894 3.74499 29.4075 3.74366 30.9221C3.74366 32.5336 3.73835 34.1464 3.74499 35.7579C3.74897 36.9074 4.2494 37.4012 5.41221 37.4025C10.6886 37.4052 15.9651 37.4118 21.2415 37.3906C21.7486 37.3879 21.953 37.5538 22.1335 38.0158C22.5397 39.0538 23.0335 40.0573 23.5074 41.1113C23.3361 41.1232 23.1477 41.1458 22.9592 41.1458C17.1093 41.1471 11.2581 41.1564 5.40822 41.1431C2.59545 41.1365 0.549924 39.4825 0.0826774 36.8662C0.0216168 36.5211 0.0202894 36.1627 0.018962 35.8109C0.012325 34.3309 0.0508197 32.8508 0.00701538 31.3721C-0.0394438 29.835 0.126482 28.3735 1.16717 27.1138V27.1164ZM16.8465 4.66206C13.0302 4.66206 9.21389 4.6594 5.3976 4.66206C4.24674 4.66206 3.75162 5.16249 3.74764 6.32397C3.74233 8.02304 3.74233 9.72212 3.74764 11.4212C3.75162 12.5668 4.24542 13.0818 5.40557 13.0831C13.0381 13.0911 20.672 13.0911 28.3046 13.0831C29.4595 13.0831 29.9519 12.5615 29.9559 11.4119C29.9612 9.7354 29.9599 8.05756 29.9559 6.38104C29.9533 5.1439 29.4701 4.66206 28.229 4.66206C24.4339 4.6594 20.6402 4.66206 16.8451 4.66206H16.8465Z" fill="#528CFF"/>
<path id="Vector_3" d="M39.9885 30.6341C39.934 31.5367 39.7323 32.4115 39.65 33.3088C39.5677 34.2061 39.4044 35.1087 39.196 35.9888C38.3889 39.3896 36.3474 41.9077 33.2718 43.5723C32.3094 44.0926 31.3285 44.0926 30.3621 43.563C26.8047 41.6157 24.7459 38.6157 24.1658 34.6189C23.9508 33.1376 23.8167 31.6402 23.7251 30.1443C23.6375 28.704 24.4605 27.7682 25.833 27.3355C27.3609 26.8536 28.8768 26.3094 30.3422 25.6629C31.3776 25.2063 32.2763 25.193 33.3076 25.6709C34.6204 26.2802 35.981 26.8191 37.3682 27.2306C38.0505 27.4337 38.7912 27.6846 39.2995 28.2102C39.8663 28.7969 40.0309 29.6969 39.9978 30.4801C39.9951 30.5305 39.9925 30.581 39.9898 30.6314L39.9885 30.6341ZM37.2301 31.027C37.258 30.7296 37.2354 30.427 37.0058 30.212C36.8067 30.0274 36.5346 29.9359 36.2824 29.8509C34.951 29.4036 33.6594 28.8407 32.3333 28.3748C32.024 28.266 31.6125 28.2607 31.3046 28.3695C29.9175 28.858 28.5608 29.4341 27.1711 29.9159C26.6905 30.0832 26.4556 30.2916 26.5286 30.8026C26.7569 32.3929 26.8631 34.011 27.2321 35.5667C27.7644 37.8127 29.0175 39.6126 31.0603 40.8073C31.5979 41.1219 32.0572 41.1153 32.5935 40.81C34.3895 39.7865 35.6107 38.2627 36.1669 36.3193C36.4934 35.1804 36.7031 34.0123 36.9076 32.8469C36.9925 32.365 37.1014 31.8871 37.177 31.4026C37.1956 31.2832 37.2168 31.1557 37.2301 31.027Z" fill="#528CFF"/>
</g>
</g>
</g>
</g>
<defs>
<clipPath id="clip0_3_168">
<rect width="40" height="44" fill="white" transform="translate(0 0.919983)"/>
</clipPath>
</defs>
</svg>
