<svg width="20" height="12" viewBox="0 0 20 12" fill="none" xmlns="http://www.w3.org/2000/svg">
<path id="Vector" d="M8.8175 11.2211C8.9723 11.377 9.1565 11.5009 9.3595 11.5854C9.5624 11.6699 9.7801 11.7134 10 11.7134C10.2199 11.7134 10.4376 11.6699 10.6405 11.5854C10.8435 11.5009 11.0277 11.377 11.1825 11.2211L19.5102 2.89949C19.8238 2.58609 20 2.16099 20 1.71779C20 1.27459 19.8238 0.849492 19.5102 0.536092C19.1966 0.222792 18.7712 0.0466919 18.3277 0.0466919C17.8841 0.0466919 17.4588 0.222792 17.1451 0.536092L10 7.69269L2.8549 0.536092C2.5412 0.222792 2.1159 0.0466919 1.6723 0.0466919C1.2288 0.0466919 0.8034 0.222792 0.4898 0.536092C0.1762 0.849492 0 1.27459 0 1.71779C0 2.16099 0.1762 2.58609 0.4898 2.89949L8.8175 11.2211Z" fill="white" fill-opacity="0.3"/>
</svg>
